<svg height="43" viewBox="0 0 127 43" width="127" xmlns="http://www.w3.org/2000/svg"><path d="m46.095 29h-4.279l-2.72-9.843h-.073c-.183 1.858-.362 3.19-.537 4.002l-1.214 5.841h-3.272l2.905-14h4.28l2.69 9.412h.084c.183-1.505.36-2.69.537-3.552l1.23-5.86h3.274zm4.905 0 3.064-14h3.936l-3.064 14zm8 0 3.064-14h3.936l-3.064 14zm16.411-10.97c-.687 0-1.306.244-1.86.727-.552.485-.987 1.15-1.3 2a7.885 7.885 0 0 0 -.473 2.763c0 .831.177 1.45.533 1.86.355.41.868.614 1.536.614a6.95 6.95 0 0 0 1.603-.19c.54-.127 1.176-.343 1.907-.647v3.005c-1.292.557-2.689.838-4.197.838-1.653 0-2.926-.462-3.82-1.382-.894-.921-1.34-2.225-1.34-3.912 0-1.65.323-3.162.968-4.539.646-1.378 1.524-2.416 2.633-3.116 1.109-.701 2.379-1.051 3.809-1.051 1.685 0 3.215.406 4.589 1.218l-1.413 2.838a9.438 9.438 0 0 0 -1.63-.768 4.697 4.697 0 0 0 -1.546-.257m14.703 10.969h-8.113l2.889-14h8.111l-.607 3.035h-4.458l-.439 2.203h4.15l-.674 3.037h-4.15l-.532 2.641h4.458zm3.887-1.579c0-.754.204-1.348.613-1.778.408-.43.972-.643 1.689-.643.528 0 .943.138 1.245.416.302.276.453.675.453 1.194 0 .818-.188 1.42-.566 1.808-.377.387-.975.582-1.793.582-.49 0-.886-.127-1.188-.384-.303-.256-.453-.656-.453-1.196m20.095 1.58h-4.28l-2.718-9.843h-.076c-.181 1.858-.36 3.19-.535 4.002l-1.214 5.841h-3.272l2.905-14h4.279l2.691 9.412h.084c.182-1.505.36-2.69.537-3.552l1.23-5.86h3.274zm3.905 0 2.972-14h3.759l-2.317 10.945h4.586l-.653 3.055zm-118-3.59h12.535l-.012.046-4.327 17.544 18.804-25.41h-12.536l4.339-17.59z" fill="#fff" fill-rule="evenodd"/></svg>
